<svg width="50" height="51" viewBox="0 0 50 51" fill="none" xmlns="http://www.w3.org/2000/svg">
<path d="M35.7263 50.264C35.0645 50.264 34.4298 50.0011 33.9618 49.5331C33.4938 49.0652 33.2309 48.4304 33.2309 47.7686V41.2806C33.3084 40.5343 33.2286 39.7801 32.9965 39.0665C32.7644 38.353 32.3852 37.6961 31.8834 37.1383C31.5727 36.8013 31.3608 36.3854 31.271 35.9359C31.1811 35.4865 31.2168 35.0211 31.374 34.5906C31.5313 34.1601 31.804 33.7812 32.1624 33.4955C32.5208 33.2098 32.9509 33.0284 33.4056 32.971C39.4943 32.2473 45.1089 30.3009 45.1089 19.7454C45.1109 17.7743 44.5291 15.8467 43.437 14.2057C42.4293 12.695 42.0614 10.8466 42.4139 9.06518C42.6388 7.90313 42.6388 6.70873 42.4139 5.54669C40.5454 6.17846 38.7861 7.09601 37.1986 8.26666C36.8984 8.4798 36.5548 8.62389 36.1924 8.68861C35.83 8.75332 35.4578 8.73705 35.1024 8.64097C30.5991 7.36846 25.8312 7.36846 21.3279 8.64097C20.9725 8.73705 20.6003 8.75332 20.2379 8.68861C19.8755 8.62389 19.5319 8.4798 19.2318 8.26666C17.6346 7.08244 15.8566 6.16396 13.9665 5.54669C13.7292 6.70751 13.7292 7.90435 13.9665 9.06518C14.2936 10.869 13.909 12.7294 12.8935 14.2556C11.8062 15.9081 11.2251 17.8422 11.2216 19.8203C11.2216 29.5274 15.9129 32.1226 22.9499 33.0209C23.4104 33.078 23.8458 33.2624 24.2072 33.5534C24.5687 33.8443 24.8419 34.2302 24.9961 34.6679C25.1412 35.0925 25.1691 35.5484 25.0769 35.9875C24.9847 36.4267 24.7757 36.8328 24.4721 37.1632C23.9867 37.682 23.6142 38.2958 23.378 38.9658C23.1418 39.6359 23.047 40.3476 23.0996 41.056V47.7686C23.0996 48.4304 22.8367 49.0652 22.3687 49.5331C21.9008 50.0011 21.2661 50.264 20.6042 50.264C19.9424 50.264 19.3077 50.0011 18.8397 49.5331C18.3718 49.0652 18.1089 48.4304 18.1089 47.7686V46.3463C15.6568 46.6283 13.1731 46.2997 10.8787 45.3898C8.5843 44.4798 6.55046 43.0168 4.95816 41.1309C4.13969 40.2237 3.15769 39.4787 2.06352 38.935C1.74565 38.853 1.44703 38.7093 1.18471 38.512C0.922388 38.3146 0.701503 38.0676 0.534666 37.7849C0.367829 37.5022 0.258307 37.1894 0.212352 36.8644C0.166398 36.5394 0.184912 36.2085 0.266837 35.8906C0.348762 35.5727 0.492493 35.2741 0.689824 35.0118C0.887156 34.7495 1.13422 34.5286 1.41692 34.3617C1.69961 34.1949 2.0124 34.0854 2.33743 34.0394C2.66245 33.9935 2.99334 34.012 3.31121 34.0939C5.23078 34.7932 6.94599 35.9595 8.30198 37.4876C10.7974 39.983 13.2928 42.179 18.034 41.2806C17.9506 39.9408 18.1461 38.5983 18.6079 37.3379C13.4674 36.0403 6.131 32.3471 6.131 19.8702C6.12442 16.9147 6.99268 14.0234 8.62638 11.5606C8.92983 11.1059 9.04604 10.5517 8.95078 10.0134C8.44654 7.31984 8.73253 4.53789 9.77426 2.00324C9.91581 1.66527 10.13 1.36263 10.4017 1.1168C10.6734 0.87097 10.996 0.687993 11.3464 0.580866C12.1948 0.331327 15.2392 -0.16775 21.0035 3.57533C25.6698 2.45242 30.5359 2.45242 35.2023 3.57533C40.9666 -0.16775 44.011 0.306373 44.8344 0.580866C45.1848 0.687993 45.5074 0.87097 45.7791 1.1168C46.0508 1.36263 46.265 1.66527 46.4065 2.00324C47.4503 4.54612 47.7363 7.33664 47.23 10.0384C47.179 10.2818 47.1769 10.533 47.2241 10.7772C47.2712 11.0214 47.3665 11.2538 47.5045 11.4608C49.1429 13.9307 50.0114 16.8314 49.9999 19.7953C49.9999 32.447 42.7134 36.1152 37.523 37.2631C37.9802 38.6021 38.1668 40.0186 38.0719 41.4303V47.7686C38.0731 48.4053 37.8308 49.0183 37.3948 49.4822C36.9587 49.9461 36.3618 50.2258 35.7263 50.264V50.264Z" fill="#DEDEDE"/>
</svg>
