<svg width="54" height="52" viewBox="0 0 54 52" fill="none" xmlns="http://www.w3.org/2000/svg">
<path d="M37 17.0001C40.9782 17.0001 44.7936 18.5805 47.6066 21.3935C50.4196 24.2066 52 28.0219 52 32.0001V49.5001H42V32.0001C42 30.674 41.4732 29.4023 40.5355 28.4646C39.5978 27.5269 38.3261 27.0001 37 27.0001C35.6739 27.0001 34.4021 27.5269 33.4645 28.4646C32.5268 29.4023 32 30.674 32 32.0001V49.5001H22V32.0001C22 28.0219 23.5803 24.2066 26.3934 21.3935C29.2064 18.5805 33.0217 17.0001 37 17.0001V17.0001Z" stroke="#C9C9C9" stroke-width="4" stroke-linecap="round" stroke-linejoin="round"/>
<path d="M12 19.5H2V49.5H12V19.5Z" stroke="#C9C9C9" stroke-width="4" stroke-linecap="round" stroke-linejoin="round"/>
<path d="M7 12C9.76142 12 12 9.76142 12 7C12 4.23858 9.76142 2 7 2C4.23858 2 2 4.23858 2 7C2 9.76142 4.23858 12 7 12Z" stroke="#C9C9C9" stroke-width="4" stroke-linecap="round" stroke-linejoin="round"/>
</svg>
