<svg width="60" height="50" viewBox="0 0 60 50" fill="none" xmlns="http://www.w3.org/2000/svg">
<path fill-rule="evenodd" clip-rule="evenodd" d="M59.2012 4.65602C60.2663 3.59075 60.2663 1.86385 59.2012 0.798574C58.1361 -0.266153 56.4093 -0.266153 55.3443 0.798574L33.5261 22.617C32.461 23.6821 32.461 25.4089 33.5261 26.4739L55.3443 48.2921C56.4093 49.3572 58.1361 49.3572 59.2012 48.2921C60.2663 47.2271 60.2663 45.5003 59.2012 44.4352L39.3115 24.5455L59.2012 4.65602ZM26.4739 4.65602C27.539 3.59075 27.539 1.86385 26.4739 0.798574C25.4088 -0.266153 23.682 -0.266153 22.617 0.798574L0.798542 22.617C-0.266185 23.6821 -0.266185 25.4089 0.798542 26.4739L22.617 48.2921C23.682 49.3572 25.4088 49.3572 26.4739 48.2921C27.539 47.2271 27.539 45.5003 26.4739 44.4352L6.58417 24.5455L26.4739 4.65602Z" fill="white"/>
</svg>
