<svg width="50" height="40" viewBox="0 0 50 40" fill="none" xmlns="http://www.w3.org/2000/svg">
<path fill-rule="evenodd" clip-rule="evenodd" d="M42.5 0C46.6421 0 50 3.35786 50 7.5V32.5C50 36.6421 46.6421 40 42.5 40H7.5C3.35786 40 0 36.6421 0 32.5V7.5C0 3.35786 3.35786 0 7.5 0H42.5ZM45 8.32L26.6463 24.3814C25.7822 25.1375 24.5276 25.2005 23.5985 24.5704L23.3537 24.3814L5 8.3225V32.5C5 33.8807 6.11929 35 7.5 35H42.5C43.8807 35 45 33.8807 45 32.5V8.32ZM41.2 5H8.795L25 19.1781L41.2 5Z" fill="#C9C9C9"/>
</svg>
