<svg width="50" height="44" viewBox="0 0 50 44" fill="none" xmlns="http://www.w3.org/2000/svg">
<path d="M0 3.125C0 1.39912 1.39912 0 3.125 0H46.875C48.6009 0 50 1.39912 50 3.125C50 4.85088 48.6009 6.25 46.875 6.25H3.125C1.39912 6.25 0 4.85088 0 3.125Z" fill="#DEDEDE"/>
<path d="M0 40.625C0 38.8991 1.39912 37.5 3.125 37.5H46.875C48.6009 37.5 50 38.8991 50 40.625C50 42.3509 48.6009 43.75 46.875 43.75H3.125C1.39912 43.75 0 42.3509 0 40.625Z" fill="#DEDEDE"/>
<path d="M3.125 18.75C1.39912 18.75 0 20.1491 0 21.875C0 23.6009 1.39912 25 3.125 25H28.125C29.8509 25 31.25 23.6009 31.25 21.875C31.25 20.1491 29.8509 18.75 28.125 18.75H3.125Z" fill="#DEDEDE"/>
</svg>
