<svg width="96" height="96" viewBox="0 0 96 96" fill="none" xmlns="http://www.w3.org/2000/svg">
<g clip-path="url(#clip0_303_238)">
<rect width="96" height="96" rx="48" fill="#B5F5F5"/>
<path fill-rule="evenodd" clip-rule="evenodd" d="M62.4972 19.1631C78.2209 26.1733 85.9053 44.7377 79.1283 59.3424C73.9701 70.4623 62.875 76.8 48.5668 76.8C37.1426 76.8 31.0411 73.765 25.0084 65.0832C17.3469 54.0571 17.2539 37.8158 24.7937 27.4484C31.7024 17.9497 50.5076 13.8175 62.4972 19.1631Z" fill="#FEE6B5" fill-opacity="0.6"/>
<path fill-rule="evenodd" clip-rule="evenodd" d="M60.8675 23.7781C74.7741 29.9636 81.5704 46.344 75.5766 59.2304C71.0145 69.0421 61.2017 74.6342 48.547 74.6342C38.443 74.6342 33.0467 71.9562 27.7112 64.2958C20.9351 54.567 20.8528 40.2364 27.5213 31.0886C33.6316 22.7074 50.2635 19.0614 60.8675 23.7781Z" fill="#FFDF8E"/>
<path fill-rule="evenodd" clip-rule="evenodd" d="M39.0296 84.666C40.5204 84.6291 41.8066 83.8512 42.4949 82.7191C43.1506 83.1016 43.93 83.3144 44.7614 83.2938C47.0225 83.2378 48.8131 81.4774 48.7607 79.3618C48.7585 79.2755 48.7534 79.19 48.7452 79.1052C49.6349 78.7063 50.2402 77.8464 50.2159 76.8651C50.183 75.5331 49.0021 74.4819 47.5785 74.5171C47.1677 74.5273 46.7816 74.6268 46.441 74.7952C45.8068 73.3898 44.302 72.4215 42.5711 72.4643C41.7374 72.485 40.9677 72.7373 40.3308 73.1538C39.6914 70.9647 37.5227 69.3843 34.9867 69.4471C33.5791 69.482 32.3095 70.0169 31.3677 70.8653C30.3499 69.673 28.7675 68.9259 27.0085 68.9695C24.0216 69.0435 21.6564 71.3689 21.7256 74.1636C21.7739 76.1139 22.995 77.7773 24.7437 78.5792C24.699 78.7954 24.6782 79.0193 24.6838 79.2482C24.7265 80.972 26.2547 82.3325 28.097 82.2868C28.6142 82.274 29.1011 82.1518 29.5331 81.9444C30.4558 83.599 32.3278 84.707 34.4592 84.6542C35.2953 84.6335 36.0826 84.4364 36.7815 84.102C37.4333 84.4778 38.2059 84.6864 39.0296 84.666Z" fill="#FFFEFB"/>
<path d="M25.7235 72.689C24.596 69.28 24.96 65.778 26.7779 62.905C26.8052 62.8617 26.8407 62.8243 26.8824 62.7948C26.9241 62.7653 26.9712 62.7443 27.021 62.733C27.0708 62.7217 27.1224 62.7203 27.1728 62.729C27.2231 62.7376 27.2713 62.7561 27.3145 62.7833C27.3577 62.8106 27.3951 62.8461 27.4246 62.8878C27.4541 62.9295 27.4751 62.9766 27.4864 63.0264C27.4977 63.0762 27.4991 63.1278 27.4905 63.1781C27.4818 63.2285 27.4634 63.2767 27.4361 63.3199C25.4903 66.3954 25.3221 70.0874 26.9589 73.7183C26.9804 73.7648 26.9925 73.8151 26.9944 73.8663C26.9964 73.9175 26.9881 73.9686 26.9702 74.0166C26.9522 74.0645 26.9249 74.1085 26.8898 74.1458C26.8548 74.1832 26.8127 74.2132 26.7659 74.2341C26.6715 74.2761 26.5644 74.2792 26.4678 74.2428C26.3712 74.2063 26.2928 74.1332 26.2497 74.0394C26.051 73.5987 25.8753 73.148 25.7235 72.689Z" fill="#37474F"/>
<path d="M26.2312 74.0103L26.2265 73.9893C26.2083 73.9186 26.2103 73.8441 26.2323 73.7744C26.2542 73.7047 26.2953 73.6425 26.3509 73.595C26.6651 73.3333 27.0422 73.1581 27.445 73.087C27.8477 73.0158 28.2621 73.0511 28.647 73.1893C28.7437 73.2252 28.8222 73.2981 28.8651 73.3919C28.9081 73.4857 28.9121 73.5927 28.8762 73.6894C28.8403 73.7861 28.7674 73.8646 28.6736 73.9075C28.5798 73.9505 28.4728 73.9545 28.3761 73.9186C28.1128 73.8207 27.8268 73.8008 27.5525 73.8611C27.9122 74.1007 28.2151 74.4161 28.44 74.7853C28.4651 74.8299 28.4812 74.879 28.4874 74.9298C28.4935 74.9806 28.4895 75.0321 28.4758 75.0814C28.462 75.1307 28.4386 75.1768 28.407 75.217C28.3754 75.2573 28.3362 75.2909 28.2916 75.3161C28.247 75.3412 28.1979 75.3572 28.1471 75.3634C28.0963 75.3695 28.0448 75.3656 27.9955 75.3518C27.9462 75.338 27.9001 75.3146 27.8598 75.283C27.8196 75.2514 27.7859 75.2122 27.7608 75.1676C27.7608 75.1676 27.3189 74.4097 26.5392 74.2766C26.4684 74.2648 26.4021 74.2337 26.3478 74.1867C26.2934 74.1398 26.2531 74.0787 26.2312 74.0103Z" fill="#37474F"/>
<path d="M26.287 75.0496C26.1707 74.6569 26.1425 74.2433 26.2042 73.8384C26.2157 73.7359 26.2675 73.6422 26.3482 73.5778C26.4288 73.5134 26.5317 73.4838 26.6343 73.4953C26.7368 73.5068 26.8306 73.5586 26.8949 73.6392C26.9593 73.7199 26.989 73.8228 26.9774 73.9253C26.903 74.5967 26.9849 74.9274 27.3151 75.286C27.3776 75.3632 27.4084 75.4613 27.4011 75.5603C27.3938 75.6594 27.3491 75.752 27.276 75.8193C27.2029 75.8865 27.1069 75.9234 27.0076 75.9224C26.9082 75.9214 26.813 75.8826 26.7413 75.8139C26.537 75.5945 26.3821 75.3339 26.287 75.0496Z" fill="#37474F"/>
<path d="M51.2468 59.4017C50.3551 59.5761 49.8318 61.2408 50.4632 61.8941C51.1403 62.5947 52.1389 62.2291 52.4758 61.1574C52.8127 60.0858 52.2029 59.2145 51.2468 59.4017Z" fill="#444744"/>
<ellipse cx="32.8112" cy="57.9844" rx="2.88158" ry="1.58688" transform="rotate(23.0177 32.8112 57.9844)" fill="#F59166"/>
<ellipse cx="52.5023" cy="66.2379" rx="2.50572" ry="1.46481" transform="rotate(23.5773 52.5023 66.2379)" fill="#F59166"/>
<path d="M37.7792 54.4693C36.6831 54.7087 36.4705 56.7015 37.5063 57.0271C38.0833 57.2085 38.6808 56.7996 38.9116 56.0653C39.1425 55.3309 38.8865 54.6537 38.3095 54.4723C38.1868 54.4337 37.9482 54.4324 37.7792 54.4693Z" fill="#444744"/>
<path d="M47.4814 61.6373C48.7247 62.9282 45.7442 65.583 43.1907 65.4591C40.4252 65.3249 37.9225 62.1718 38.8666 60.0112C39.3614 58.8787 39.6134 58.849 41.9658 59.6451C43.0016 59.9958 44.0767 60.3335 44.3547 60.3956C45.3767 60.6239 47.2047 61.3498 47.4814 61.6373Z" fill="#474C55"/>
<path fill-rule="evenodd" clip-rule="evenodd" d="M13.5597 31.9186C9.85623 32.4926 6.32661 31.1589 4.0972 28.6853C3.8194 29.0585 3.5059 29.4084 3.16063 29.7301C2.13167 32.0563 -0.124613 33.856 -2.95385 34.2945C-6.23601 34.8032 -9.33784 33.3326 -10.8911 30.8153C-11.4976 31.2198 -12.2075 31.5044 -12.9864 31.6251C-15.6861 32.0436 -18.192 30.3351 -18.5835 27.8092C-18.8719 25.9484 -17.9323 24.163 -16.3382 23.1845C-16.3745 23.0254 -16.4054 22.8639 -16.4308 22.7004C-17.0526 18.6886 -14.0808 14.8977 -9.79311 14.2331C-8.21654 13.9887 -6.68157 14.2011 -5.33986 14.7668C-4.37115 12.5817 -2.31924 10.8622 0.272943 10.3005C1.49377 6.93956 4.61424 4.28602 8.5921 3.66946C14.2561 2.79155 19.5136 6.37595 20.335 11.6754C20.38 11.9658 20.4107 12.2553 20.4277 12.5433C20.9647 12.3042 21.5446 12.1308 22.1576 12.0358C25.6513 11.4943 28.8942 13.7052 29.4009 16.9741C29.4682 17.4082 29.4838 17.8393 29.4521 18.2615C32.9766 19.3556 35.7103 22.2187 36.2835 25.9169C37.1049 31.2164 33.1792 36.2242 27.5152 37.1021C22.6044 37.8633 17.9991 35.27 16.3259 31.1128C15.4661 31.4916 14.5389 31.7668 13.5597 31.9186Z" fill="#F7FEF6"/>
<path d="M46.3392 80.5712C50.2216 79.6789 53.334 77.3184 55.0131 73.9407C55.0384 73.89 55.0535 73.8348 55.0575 73.7782C55.0615 73.7217 55.0543 73.6649 55.0363 73.6112C55.0184 73.5574 54.99 73.5077 54.9528 73.4649C54.9157 73.4221 54.8704 73.3871 54.8197 73.3617C54.769 73.3364 54.7138 73.3213 54.6573 73.3174C54.6007 73.3134 54.5439 73.3206 54.4902 73.3385C54.4364 73.3565 54.3867 73.3849 54.3439 73.422C54.3011 73.4592 54.2661 73.5044 54.2408 73.5551C52.4433 77.1707 49.038 79.4548 44.6519 79.9917C44.5954 79.998 44.5408 80.0155 44.4911 80.0431C44.4414 80.0708 44.3977 80.108 44.3625 80.1526C44.3274 80.1973 44.3014 80.2484 44.2861 80.3032C44.2709 80.3579 44.2667 80.4152 44.2737 80.4716C44.2882 80.5853 44.3469 80.6886 44.437 80.7593C44.5272 80.83 44.6417 80.8623 44.7555 80.8492C45.2879 80.784 45.8165 80.6913 46.3392 80.5712Z" fill="#37474F"/>
<path d="M44.794 80.8502L44.8166 80.8425C44.8942 80.8191 44.9637 80.7743 45.0172 80.7134C45.0707 80.6524 45.106 80.5777 45.1191 80.4977C45.1866 80.049 45.1357 79.5904 44.9714 79.1675C44.8071 78.7445 44.5352 78.3718 44.1826 78.0862C44.0929 78.0151 43.9786 77.9826 43.8649 77.9958C43.7512 78.009 43.6474 78.0668 43.5764 78.1566C43.5053 78.2463 43.4728 78.3606 43.486 78.4742C43.4992 78.5879 43.557 78.6917 43.6467 78.7628C43.8911 78.9563 44.0746 79.216 44.1752 79.511C43.7409 79.3076 43.2674 79.2018 42.7879 79.2009C42.7311 79.2027 42.6753 79.2157 42.6235 79.2392C42.5718 79.2626 42.5252 79.296 42.4864 79.3374C42.4476 79.3789 42.4173 79.4275 42.3973 79.4807C42.3773 79.5338 42.3679 79.5904 42.3698 79.6471C42.3716 79.7039 42.3846 79.7597 42.4081 79.8115C42.4315 79.8632 42.4649 79.9098 42.5063 79.9486C42.5478 79.9874 42.5964 80.0177 42.6496 80.0377C42.7027 80.0577 42.7593 80.0671 42.816 80.0652C42.816 80.0652 43.7892 80.0482 44.3642 80.7112C44.4162 80.7716 44.4838 80.8166 44.5596 80.8411C44.6354 80.8656 44.7165 80.8688 44.794 80.8502Z" fill="#37474F"/>
<path d="M43.7763 81.3953C44.2157 81.2796 44.6243 81.0684 44.9728 80.7769C45.0634 80.7069 45.1226 80.6038 45.1372 80.4903C45.1518 80.3768 45.1208 80.2621 45.0508 80.1714C44.9809 80.0808 44.8778 80.0217 44.7643 80.007C44.6508 79.9924 44.5361 80.0235 44.4454 80.0934C43.8514 80.5503 43.4907 80.663 42.9605 80.5561C42.8513 80.5412 42.7405 80.5685 42.6507 80.6324C42.5609 80.6963 42.4989 80.792 42.4771 80.9001C42.4554 81.0081 42.4756 81.1204 42.5337 81.2141C42.5918 81.3077 42.6834 81.3757 42.7899 81.4042C43.1156 81.4717 43.4519 81.4686 43.7763 81.3953Z" fill="#37474F"/>
<path fill-rule="evenodd" clip-rule="evenodd" d="M86.302 107.719C81.9435 108.394 77.7896 106.825 75.1658 103.914C74.8388 104.353 74.4698 104.765 74.0634 105.143C72.8524 107.881 70.197 109.999 66.8674 110.515C63.0046 111.114 59.3541 109.383 57.5261 106.42C56.8123 106.896 55.9768 107.231 55.0602 107.373C51.883 107.866 48.9338 105.855 48.473 102.882C48.1336 100.692 49.2393 98.5912 51.1155 97.4396C51.0727 97.2523 51.0363 97.0624 51.0065 96.8698C50.2747 92.1484 53.7722 87.6869 58.8184 86.9047C60.6738 86.6171 62.4803 86.8671 64.0594 87.5328C65.1994 84.9613 67.6142 82.9376 70.6648 82.2766C72.1016 78.321 75.7741 75.198 80.4557 74.4724C87.1216 73.4392 93.3091 77.6576 94.2758 83.8946C94.3288 84.2363 94.365 84.577 94.385 84.916C95.0169 84.6346 95.6994 84.4305 96.4208 84.3187C100.533 83.6814 104.349 86.2835 104.945 90.1306C105.025 90.6415 105.043 91.1488 105.006 91.6458C109.154 92.9334 112.371 96.3029 113.046 100.655C114.012 106.892 109.392 112.786 102.726 113.819C96.9467 114.715 91.5268 111.663 89.5575 106.77C88.5457 107.216 87.4544 107.54 86.302 107.719Z" fill="#FFFEFB"/>
<path fill-rule="evenodd" clip-rule="evenodd" d="M104.645 32.6128C105.933 33.3666 106.683 34.6705 106.738 35.9952C107.498 35.9776 108.283 36.1683 109.002 36.5888C110.955 37.7321 111.672 40.1407 110.602 41.9685C110.558 42.0431 110.512 42.1155 110.464 42.1858C111.051 42.9658 111.165 44.0121 110.669 44.8599C109.995 46.0107 108.452 46.3601 107.222 45.6402C106.867 45.4325 106.577 45.1585 106.36 44.8461C105.124 45.7703 103.338 45.8902 101.842 45.015C101.559 44.8493 101.302 44.6571 101.073 44.4439C99.4373 45.7874 96.9779 46.0003 94.9316 44.8027C93.2948 43.8448 92.3155 42.2146 92.1785 40.5341C90.5665 41.557 88.3729 41.63 86.5186 40.5448C83.938 39.0345 82.9916 35.8528 84.4047 33.4383C85.3909 31.7532 87.2656 30.8872 89.1855 31.031C89.251 30.82 89.3411 30.6138 89.4568 30.416C90.3285 28.9267 92.3255 28.4745 93.9172 29.4061C94.5691 29.7876 95.0519 30.342 95.3349 30.966C96.9497 29.9253 99.1587 29.8447 101.024 30.9365C101.539 31.2376 101.988 31.6051 102.367 32.0196C103.131 31.9992 103.922 32.1897 104.645 32.6128Z" fill="#FFFEFB"/>
</g>
<rect x="1" y="1" width="94" height="94" rx="47" stroke="#006D76" stroke-width="2"/>
<defs>
<clipPath id="clip0_303_238">
<rect width="96" height="96" rx="48" fill="white"/>
</clipPath>
</defs>
</svg>
